<svg height="431pt" viewBox="-42 0 431 431.10527" width="431pt" xmlns="http://www.w3.org/2000/svg"><path d="m336.851562.00390625h-287.199218c-13.097656-.07421875-25.679688 5.09374975-34.945313 14.35937475-9.261719 9.261719-14.429687 21.84375-14.355469 34.941407v329.800781c0 .199219-.199218.300781-.199218.5 0 .398437-.1015628 1-.1015628 1.398437 0 27.5 22.2031248 50.101563 49.7031248 50.101563h265.898438c5.5 0 9.699218-5 9.699218-10.5v-69.601563h11.5c5.5 0 9.5-4.597656 9.5-10.097656v-331.402344c.085938-2.542968-.886718-5.011718-2.6875-6.8125-1.800781-1.800781-4.265624-2.7734372-6.8125-2.68749975zm-316.5 49.30078175c-.074218-7.792969 2.988282-15.289063 8.5-20.800782 5.511719-5.507812 13.007813-8.574218 20.800782-8.5h16.699218v311h-16.699218c-10.585938-.09375-20.902344 3.355469-29.300782 9.800782zm285 361.699218h-255.699218c-16.566406 0-30-13.429687-30-30 0-16.566406 13.433594-30 30-30h255.699218zm21-80h-240v-311h240zm0 0"/><path d="m302.351562 62.003906c-.015624-5.515625-4.484374-9.984375-10-10h-172c-5.515624.015625-9.984374 4.484375-10 10v90c.015626 5.519532 4.484376 9.984375 10 10h172c5.515626-.015625 9.984376-4.480468 10-10zm-172 10h152v70h-152zm0 0"/></svg>